<?xml version="1.0" encoding="utf-8"?>
<!-- Generator: Adobe Illustrator 25.2.1, SVG Export Plug-In . SVG Version: 6.00 Build 0)  -->
<svg version="1.1" xmlns="http://www.w3.org/2000/svg" xmlns:xlink="http://www.w3.org/1999/xlink" x="0px" y="0px"
	 viewBox="0 0 841.9 595.3" style="enable-background:new 0 0 841.9 595.3;" xml:space="preserve">
<style type="text/css">
	.st0{display:none;}
	.st1{fill:#F2ECDD;}
	.st2{fill:#FF8383;}
	.st3{fill:#D6CEB6;}
	.st4{fill:#162257;}
	.st5{display:inline;fill:#162257;}
	.st6{display:inline;fill:#FFFFFF;}
	.st7{font-family:'LeagueSpartan-Regular';}
	.st8{font-size:12px;}
	.st9{display:inline;}
	.st10{fill:#FFFFFF;}
	.st11{font-size:8.6105px;}
	.st12{fill:none;stroke:#FFFFFF;stroke-miterlimit:10;}
	.st13{fill:none;stroke:#FFFFFF;stroke-miterlimit:10;stroke-dasharray:1.9602,2.9403;}
	.st14{fill:none;stroke:#FFFFFF;stroke-miterlimit:10;stroke-dasharray:2.0029,3.0044;}
	.st15{fill:none;stroke:#FFFFFF;stroke-miterlimit:10;stroke-dasharray:1.8167,2.725;}
	.st16{display:inline;fill:none;stroke:#FFFFFF;stroke-miterlimit:10;stroke-dasharray:2,3;}
	.st17{display:inline;fill:#C19A9A;}
	.st18{display:inline;fill:#333946;}
	.st19{font-family:'Commissioner-Regular';}
	.st20{font-size:3.6958px;}
</style>
<g id="Camada_1" class="st0">
	
		<image style="display:inline;overflow:visible;opacity:0.6;" width="1528" height="1080" xlink:href="1616D631.jpg"  transform="matrix(0 -0.8143 0.8143 0 -18.6197 890.8138)">
	</image>
</g>
<g id="Camada_4">
	<rect x="-8.4" y="-5.9" class="st1" width="859" height="609.7"/>
</g>
<g id="Camada_2">
	<path class="st2" d="M311.3,319.8c0.2,0,0.8-0.2,1.7-0.4C312.2,319.6,311.5,319.7,311.3,319.8z M468,300.1l1.1-0.3v0L468,300.1z
		 M554.4,279.9L554.4,279.9l8.2-1.9L554.4,279.9z"/>
	<path class="st2" d="M313,319.4c-0.9,0.2-1.5,0.4-1.7,0.4C311.5,319.7,312.2,319.6,313,319.4z"/>
	<path class="st3" d="M850.6,143.5V42.1l-11.1-1L797.1-6.1l-9.5,0.3l51.9,60.1v70.5L788.6,166l-72.9-87.1L847.2-2.4l-16.3-0.3
		L679,88.7L652.8-3L646-1.6l10.5,40.3l-25.9,6.5L620.3-2.4h-7.5l10,50.6l-78.6,21.1l-17-72.4h-7.5l17.7,74.8l-123.9,32.7l-12.6-49
		l129.3-32.2l-1.8-6.5L399.9,48.5L387.6-6.1h-8.5l25.2,112.8l-67.4,16.3l-33,3.7l-19.8-10.9l16-33.7l-7.5-2.7l-15.3,33l-92.2-48.3
		l38.1-70.1H213l-61.3,112l-18.4,20.1l-21.8-2l-19.7-6.5L-4.2,41v10.6L85,124.1l24.2,8.2l25.2,2.7l17.7,3.8l3.1,32.7l-76.3,2v195.7
		H46.5l-20.8-14.6L36.6,328l14.6-105.2l-7.5-1l-15,103.8l-17.7,43.9l-17-0.3v17l19.4-0.3l6.8,10.9h26.5l33-8.8l0.3,60.2l-88.6-9.2
		v8.9l87.3,7.9v80.9l62.3-20.2l26.5,84.8h7.7l-26.7-87.1l41.9-9.4l29,97.8l8.4-2.6l-30.1-98.6l87.6-21.2l14,68.2L417,508.9
		l29.8,93.7l6.9-1.8l-30-95l73.8-15.3l14.8,60l101.9-22.7l21.6,78.6h7.4l-21.6-81.2l101.4-24l23.9,105.2h6.9L731,499.2l43.1-10.2
		l28.4,118.8h8.4l-28.9-121.1l51.6-12.5l8.4,31.4l-1-32.9l-25.3-125.1l26.3-6.6v-8.2l-28.1,6.9l-7.9-46l-35.2-50l-5.9,4l33.7,50.9
		l7.4,43.4l-104.9,26l-25.5-116.8l77.3-31.3l41.4-34.9l46.7,56.1v-12.8l-40.6-48.5l39-32.8L850.6,143.5z M141.7,128.3l8.3-9.5
		l1.7,12.3L141.7,128.3z M19.6,369.7l3.6-8.5l11.2,8.5C34.4,369.7,22.5,369.7,19.6,369.7z M43.8,388.9H24.4l-1.7-2.4h30.6
		L43.8,388.9z M708.8,82.9l50.5,60.9l-58,17.5L681.6,97L708.8,82.9z M543.1,77.6l17.6,83.7l8.2-1.8l-18.1-83.5l73.5-19.7l36,155.5
		l-110.8,27.2L507.1,87.8L543.1,77.6z M663.2,228.3l2.4,9l-8.3,1.9l-2.2-9L663.2,228.3z M650.2,240.3l-94.8,22.5l-1.7-7.3l94.1-23.2
		L650.2,240.3z M236.1,239.3l18.7,77.8L160,350.6l1.2-107.9L236.1,239.3z M161.2,235.4l0.7-56.2l90.4-21.1l17,72L161.2,235.4z
		 M245,238.8l25.9-1l23.3,68.8l-30.8,8.2L245,238.8z M368.8,322.9l8.8,34.5l-102.4,23.7l-6.8-33L368.8,322.9z M308.9,319.8
		c0.2-0.1,0.8-0.2,1.7-0.4C309.8,319.6,309.2,319.8,308.9,319.8z M311.9,319c11.7-3.2,52.2-14.3,52.2-14.3v2
		C364.1,306.7,323.4,316.3,311.9,319z M377.1,320.9l81.1-19l25.7,119.5l-76.4,18.9L377.1,320.9z M372.8,304.7v-2.9l80.3-22.1
		l1.4,6.6L372.8,304.7z M461.1,277.8l85.3-20.9l1.5,7.2l-85.6,20.4L461.1,277.8z M499.4,89.9l42.9,151.6l-85.8,21.3l-42.9-151
		L499.4,89.9z M335.6,131.9l71.5-18.1l41.4,150.1l-81.2,21.7l-37-139.5L335.6,131.9z M326.8,132.6l-2.7,8.4l-8.8-6.3L326.8,132.6z
		 M324.1,149.4l35.6,138l-58.2,16.2l-23.3-66.5l-18.7-80.9l28.6-10l25.7-3.4L324.1,149.4z M304.5,136.5l-18.2,2.4l-28.7,8.8
		l-9.9-41.9L304.5,136.5z M180.3,71l59.4,30.8l10.7,48.6l-88.5,20.4l-4.5-61.2L180.3,71z M88,208l46.6-0.4v-6.7H88v-20.2l66.2-0.8
		v55.7H88V208z M87.3,242.4h66.9l-1.7,48.7h-30.3v7.7h31l-0.8,54.1l-54,17.7l-11.1-0.9V242.4z M120.5,512.9l-33.7,10.7l1.5-135.7
		h13.9l53.2-15.3l33.7,122.7L120.5,512.9z M196.4,494.8l-33.6-124.2l96.2-27.6l1.7,7.2l14.9,81.4l9.2,40.3L196.4,494.8z
		 M284.2,432.5l-7.4-44.2l102.6-23l11,45.1L284.2,432.5z M285.5,439.4l107.2-22.5l7.2,26.5l-107.8,26.8L285.5,439.4z M305.6,539.5
		l-12.5-62.3l108.5-26.8l14.1,49.5L305.6,539.5z M422.3,497.9l-12.5-48.8l75.1-20.4l11,54.1L422.3,497.9z M517.6,542.6l-25.3-114.6
		l93.7-24.3l26.8,116.2L517.6,542.6z M807.1,349.3l24.2,115.9l-50.8,13.5l-30.4-115.9L807.1,349.3z M742.8,365.1L773.1,480
		l-44.7,10.7l-25.8-116.2L742.8,365.1z M721.8,493.5l-101.1,24.3l-27.8-115.1l102.4-25.3L721.8,493.5z M694,368.7l-102.1,25.8
		L560.2,278l-8.2,1.9l32.2,116.9l-93.4,23.5l-24.1-120.4l-1.1,0.3l1.1-0.3v0l85.3-19.9v0l8.2-1.9l107.9-25.2L694,368.7z
		 M744.4,204.1l-72.5,29.3L632.4,53.8l25.7-7.3l38.5,124.1l67.6-20.9l19.2,22.1L744.4,204.1z"/>
	<path class="st2" d="M554.4,279.9L554.4,279.9l8.2-1.9L554.4,279.9z M468,300.1l1.1-0.3v0L468,300.1z"/>
	<polygon class="st3" points="-2.5,314.7 12.1,226.2 34.6,138.2 40,98.6 0,56.4 -1.3,69.3 31.5,101.6 26.8,140.4 8.7,130.7 
		-1.5,120.9 -1.7,133.1 6.5,139.2 24.9,148.4 16,184.4 -2.5,173.3 -2.5,182.3 13.8,192.7 6.7,219.9 -1.3,217 -1.3,225.5 4.6,227.8 
		-1,258.6 	"/>
</g>
<g id="Camada_3">
	<path class="st4" d="M783.3,171.8l-38.7,32L672.1,233l-5.5-23.5l-217.9,54.3l-81.1,21.4l-112.7,31l-153.6,53.1l-22.2-0.5H-5.7v18.1
		l108.2,0.9l156.6-44.9l1.7,7.2l118.8-29.8L560.5,278l107.7-25.2l7.5-1.7l77.3-31.3l41.4-34.9L783.3,171.8z M317.9,317.5l46-12.8
		l0.2,1.9L317.9,317.5z M373.1,304.6l-0.1-2.9l80-22l1.2,6.3L373.1,304.6z M463.2,283.9l-1.4-6.3l84.4-20.7l1.7,7.2L463.2,283.9z
		 M646.9,240.8l-91.4,21.4l-1.5-6.8l93.9-23.1l2.3,7.8L646.9,240.8z M657.6,238.6l-2.6-8.5l8.2-1.9l2.1,8.7L657.6,238.6z"/>
</g>
<g id="Camada_5" class="st0">
	<polygon class="st5" points="709.4,237.4 738.5,358.7 757,354.1 726.9,230.3 	"/>
	<text transform="matrix(0.2241 0.9746 -0.9746 0.2241 721.8076 267.1394)" class="st6 st7 st8">CALÇADÃO</text>
	<g class="st9">
		<text transform="matrix(0 1 -1 0 108.6465 269.4036)" class="st10 st7 st8">Vila Belga</text>
	</g>
	<g class="st9">
		<text transform="matrix(-0.1415 0.9899 -0.9899 -0.1415 48.4594 274.6057)" class="st10 st7 st8">Gare</text>
	</g>
	<g class="st9">
		<text transform="matrix(0.2241 0.9746 -0.9746 0.2241 673.5566 272.9381)" class="st10 st7 st11">Venancio Aires</text>
	</g>
	<g class="st9">
		<text transform="matrix(0.2029 0.9792 -0.9792 0.2029 464.5185 323.9881)" class="st10 st7 st11">Silva Jardim</text>
	</g>
	<g class="st9">
		<text transform="matrix(0.1712 0.9852 -0.9852 0.1712 268.4141 382.8266)" class="st10 st7 st11">Daudt</text>
	</g>
	<g class="st9">
		<text transform="matrix(0.2775 0.9607 -0.9607 0.2775 161.7652 394.3974)" class="st10 st7 st11">Ernesto Beck</text>
	</g>
	<g class="st9">
		<text transform="matrix(0 1 -1 0 81.1426 417.7982)" class="st10 st7 st11">Manuel Ribas</text>
	</g>
	<text transform="matrix(0.2241 0.9746 -0.9746 0.2241 376.0645 344.2644)" class="st6 st7 st11">Vale Machado</text>
	<g class="st9">
		<text transform="matrix(0.2607 0.9654 -0.9654 0.2607 561.5828 307.9954)" class="st10 st7 st11">Andradas</text>
	</g>
</g>
<g id="Camada_6" class="st0">
	<circle class="st6" cx="103.2" cy="362.9" r="8.2"/>
	<circle class="st6" cx="131.6" cy="352.1" r="8.2"/>
	<circle class="st6" cx="139.8" cy="381.2" r="8.2"/>
	<circle class="st6" cx="181.1" cy="334.1" r="8.2"/>
	<circle class="st6" cx="221.3" cy="319.8" r="8.2"/>
	<circle class="st6" cx="242.2" cy="312.8" r="8.2"/>
	<circle class="st6" cx="268.4" cy="306.5" r="8.2"/>
	<circle class="st6" cx="278.5" cy="303.5" r="8.2"/>
	<circle class="st6" cx="287.5" cy="300.7" r="8.2"/>
	<circle class="st6" cx="341" cy="331.1" r="8.2"/>
	<circle class="st6" cx="394.3" cy="271.5" r="8.2"/>
	<circle class="st6" cx="440.3" cy="261" r="8.2"/>
	<circle class="st6" cx="583.7" cy="225.5" r="8.2"/>
	<circle class="st6" cx="654.6" cy="262.8" r="8.2"/>
	<g class="st9">
		<g>
			<line class="st12" x1="101.7" y1="362.9" x2="100.7" y2="362.6"/>
			<line class="st13" x1="97.8" y1="361.9" x2="70.7" y2="355.3"/>
			<polyline class="st12" points="69.3,354.9 68.3,354.7 68.3,353.7 			"/>
			<line class="st14" x1="68.3" y1="350.7" x2="68.3" y2="161.9"/>
			<polyline class="st12" points="68.3,160.4 68.3,159.4 69.3,159.4 			"/>
			<line class="st15" x1="72" y1="159.3" x2="93.3" y2="158.4"/>
			<line class="st12" x1="94.7" y1="158.3" x2="95.7" y2="158.3"/>
			<g>
				<path class="st10" d="M95.7,162c2.1-0.1,3.7-1.8,3.6-3.9c-0.1-2.1-1.8-3.7-3.9-3.6c-2.1,0.1-3.7,1.8-3.6,3.9
					C91.8,160.5,93.6,162.1,95.7,162z"/>
			</g>
		</g>
	</g>
	<polyline class="st16" points="131.6,352.1 101.7,343.9 101.7,223.1 123.5,223.1 	"/>
	<polyline class="st16" points="181.1,334.1 168,325.9 168,154.7 187.4,149.6 	"/>
	<path class="st6" d="M132,190.1H88.4c-2.9,0-5.3-2.4-5.3-5.3v-52.7c0-2.9,2.4-5.3,5.3-5.3H132c2.9,0,5.3,2.4,5.3,5.3v52.7
		C137.3,187.7,134.9,190.1,132,190.1z"/>
	<path class="st6" d="M157.5,260.5h-43.6c-2.9,0-5.3-2.4-5.3-5.3v-52.7c0-2.9,2.4-5.3,5.3-5.3h43.6c2.9,0,5.3,2.4,5.3,5.3v52.7
		C162.8,258.1,160.4,260.5,157.5,260.5z"/>
	<path class="st6" d="M145.3,497.9h-43.6c-2.9,0-5.3-2.4-5.3-5.3v-52.7c0-2.9,2.4-5.3,5.3-5.3h43.6c2.9,0,5.3,2.4,5.3,5.3v52.7
		C150.6,495.5,148.2,497.9,145.3,497.9z"/>
	<path class="st6" d="M334.8,430.6h-43.6c-2.9,0-5.3-2.4-5.3-5.3v-52.7c0-2.9,2.4-5.3,5.3-5.3h43.6c2.9,0,5.3,2.4,5.3,5.3v52.7
		C340.1,428.2,337.7,430.6,334.8,430.6z"/>
	<path class="st6" d="M229.2,181.2h-43.6c-2.9,0-5.3-2.4-5.3-5.3v-52.7c0-2.9,2.4-5.3,5.3-5.3h43.6c2.9,0,5.3,2.4,5.3,5.3v52.7
		C234.5,178.8,232.1,181.2,229.2,181.2z"/>
	<path class="st6" d="M252.8,256.9h-43.6c-2.9,0-5.3-2.4-5.3-5.3v-52.7c0-2.9,2.4-5.3,5.3-5.3h43.6c2.9,0,5.3,2.4,5.3,5.3v52.7
		C258,254.5,255.7,256.9,252.8,256.9z"/>
	<path class="st6" d="M330.7,122.5h-43.6c-2.9,0-5.3-2.4-5.3-5.3V64.5c0-2.9,2.4-5.3,5.3-5.3h43.6c2.9,0,5.3,2.4,5.3,5.3v52.7
		C336,120.2,333.7,122.5,330.7,122.5z"/>
	<path class="st6" d="M340,192.8h-43.6c-2.9,0-5.3-2.4-5.3-5.3v-52.7c0-2.9,2.4-5.3,5.3-5.3H340c2.9,0,5.3,2.4,5.3,5.3v52.7
		C345.3,190.4,342.9,192.8,340,192.8z"/>
	<path class="st6" d="M348.7,287.7h-43.6c-2.9,0-5.3-2.4-5.3-5.3v-52.7c0-2.9,2.4-5.3,5.3-5.3h43.6c2.9,0,5.3,2.4,5.3,5.3v52.7
		C353.9,285.3,351.6,287.7,348.7,287.7z"/>
	<polyline class="st16" points="221.3,319.8 194.6,314.7 194.6,219 203.9,219 	"/>
	<polyline class="st16" points="242.2,312.8 234.1,265.3 269.3,265.3 271.8,117.5 282.4,113.8 	"/>
	<polyline class="st16" points="268,308.9 262.1,273 275.2,273 278.4,161.1 307.4,161.1 	"/>
	<polyline class="st16" points="288.1,300.1 282.4,285.6 291.3,285.6 294.2,256.9 308.9,256.9 	"/>
	<polyline class="st16" points="139.8,381.2 162.8,463.3 147.9,468.5 	"/>
	<polyline class="st16" points="341,331.1 353.9,391.6 326.9,396.7 	"/>
	<path class="st17" d="M132.3,177.1H88.1c-0.7,0-1.2-0.5-1.2-1.2v-41.7c0-1.3,1.1-2.4,2.4-2.4h41.9c1.3,0,2.4,1.1,2.4,2.4v41.7
		C133.5,176.6,133,177.1,132.3,177.1z"/>
	<text transform="matrix(1 0 0 1 86.8874 184.157)" class="st18 st19 st20">Avenida Rio Branco, 134</text>
	<path class="st17" d="M157.8,247.2h-44.2c-0.7,0-1.2-0.5-1.2-1.2v-41.7c0-1.3,1.1-2.4,2.4-2.4h41.9c1.3,0,2.4,1.1,2.4,2.4V246
		C159,246.7,158.5,247.2,157.8,247.2z"/>
	<text transform="matrix(1 0 0 1 112.3914 254.2539)" class="st18 st19 st20">Avenida Rio Branco, 148</text>
	<path class="st17" d="M253.1,243.7h-44.2c-0.7,0-1.2-0.5-1.2-1.2v-41.7c0-1.3,1.1-2.4,2.4-2.4h41.9c1.3,0,2.4,1.1,2.4,2.4v41.7
		C254.3,243.2,253.7,243.7,253.1,243.7z"/>
	<text transform="matrix(1 0 0 1 207.649 250.7392)" class="st18 st19 st20">Avenida Rio Branco, 318</text>
	<path class="st17" d="M229.5,168.7h-44.2c-0.7,0-1.2-0.5-1.2-1.2v-41.7c0-1.3,1.1-2.4,2.4-2.4h41.9c1.3,0,2.4,1.1,2.4,2.4v41.7
		C230.8,168.1,230.2,168.7,229.5,168.7z"/>
	<text transform="matrix(1 0 0 1 184.1152 175.7061)" class="st18 st19 st20">Avenida Rio Branco, 234</text>
	<path class="st17" d="M331,110h-44.2c-0.7,0-1.2-0.5-1.2-1.2V67.1c0-1.3,1.1-2.4,2.4-2.4h41.9c1.3,0,2.4,1.1,2.4,2.4v41.7
		C332.2,109.5,331.7,110,331,110z"/>
	<text transform="matrix(1 0 0 1 285.5952 117.0484)" class="st18 st19 st20">Avenida Rio Branco, 354</text>
	<path class="st17" d="M340.3,178.8h-44.2c-0.7,0-1.2-0.5-1.2-1.2v-41.7c0-1.3,1.1-2.4,2.4-2.4h41.9c1.3,0,2.4,1.1,2.4,2.4v41.7
		C341.5,178.2,341,178.8,340.3,178.8z"/>
	<text transform="matrix(1 0 0 1 294.8916 185.7967)" class="st18 st19 st20">Avenida Rio Branco, 378</text>
	<path class="st17" d="M349,274.6h-44.2c-0.7,0-1.2-0.5-1.2-1.2v-41.7c0-1.3,1.1-2.4,2.4-2.4h41.9c1.3,0,2.4,1.1,2.4,2.4v41.7
		C350.2,274.1,349.7,274.6,349,274.6z"/>
	<text transform="matrix(1 0 0 1 303.5558 281.6346)" class="st18 st19 st20">Avenida Rio Branco, 404</text>
	<path class="st17" d="M335.1,418.1h-44.2c-0.7,0-1.2-0.5-1.2-1.2v-41.7c0-1.3,1.1-2.4,2.4-2.4H334c1.3,0,2.4,1.1,2.4,2.4v41.7
		C336.3,417.5,335.8,418.1,335.1,418.1z"/>
	<text transform="matrix(1 0 0 1 289.7109 425.0952)" class="st18 st19 st20">Avenida Rio Branco, 479</text>
	<path class="st17" d="M145.6,485.4h-44.2c-0.7,0-1.2-0.5-1.2-1.2v-41.7c0-1.3,1.1-2.4,2.4-2.4h41.9c1.3,0,2.4,1.1,2.4,2.4v41.7
		C146.8,484.8,146.3,485.4,145.6,485.4z"/>
	<text transform="matrix(1 0 0 1 100.1691 492.3965)" class="st18 st19 st20">Avenida Rio Branco, 167</text>
	<polyline class="st16" points="278.5,303.5 271.4,278.9 281.1,278.5 286.7,206.9 356.8,206.9 	"/>
	<path class="st6" d="M399,217.4h-43.6c-2.9,0-5.3-2.4-5.3-5.3v-52.7c0-2.9,2.4-5.3,5.3-5.3H399c2.9,0,5.3,2.4,5.3,5.3v52.7
		C404.3,215.1,402,217.4,399,217.4z"/>
	<path class="st17" d="M399.4,204.3h-44.2c-0.7,0-1.2-0.5-1.2-1.2v-41.7c0-1.3,1.1-2.4,2.4-2.4h41.9c1.3,0,2.4,1.1,2.4,2.4v41.7
		C400.6,203.8,400,204.3,399.4,204.3z"/>
	<text transform="matrix(1 0 0 1 353.9388 211.3624)" class="st18 st19 st20">Avenida Rio Branco, 390</text>
	<path class="st6" d="M459.2,200.3h-43.6c-2.9,0-5.3-2.4-5.3-5.3v-52.7c0-2.9,2.4-5.3,5.3-5.3h43.6c2.9,0,5.3,2.4,5.3,5.3V195
		C464.5,198,462.1,200.3,459.2,200.3z"/>
	<path class="st17" d="M459.5,187.2h-44.2c-0.7,0-1.2-0.5-1.2-1.2v-41.7c0-1.3,1.1-2.4,2.4-2.4h41.9c1.3,0,2.4,1.1,2.4,2.4V186
		C460.7,186.7,460.2,187.2,459.5,187.2z"/>
	<text transform="matrix(1 0 0 1 414.1078 194.2423)" class="st18 st19 st20">Avenida Rio Branco, 548</text>
	<path class="st6" d="M532.7,200.3h-43.6c-2.9,0-5.3-2.4-5.3-5.3v-52.7c0-2.9,2.4-5.3,5.3-5.3h43.6c2.9,0,5.3,2.4,5.3,5.3V195
		C538,198,535.6,200.3,532.7,200.3z"/>
	<path class="st17" d="M533,187.2h-44.2c-0.7,0-1.2-0.5-1.2-1.2v-41.7c0-1.3,1.1-2.4,2.4-2.4h41.9c1.3,0,2.4,1.1,2.4,2.4V186
		C534.2,186.7,533.7,187.2,533,187.2z"/>
	<text transform="matrix(1 0 0 1 487.609 194.2423)" class="st18 st19 st20">Avenida Rio Branco, 1864</text>
	<path class="st6" d="M644.9,168.7h-43.6c-2.9,0-5.3-2.4-5.3-5.3v-52.7c0-2.9,2.4-5.3,5.3-5.3h43.6c2.9,0,5.3,2.4,5.3,5.3v52.7
		C650.2,166.3,647.8,168.7,644.9,168.7z"/>
	<path class="st17" d="M645.2,155.6H601c-0.7,0-1.2-0.5-1.2-1.2v-41.7c0-1.3,1.1-2.4,2.4-2.4h41.9c1.3,0,2.4,1.1,2.4,2.4v41.7
		C646.4,155,645.9,155.6,645.2,155.6z"/>
	<text transform="matrix(1 0 0 1 599.7947 162.599)" class="st18 st19 st20">Avenida Rio Branco, 842</text>
	<polyline class="st16" points="394.3,271.5 380.8,229.3 418.9,229.3 418.9,189.4 	"/>
	<polyline class="st16" points="440.3,262.3 432.2,235 478,235 478,176.4 486,176.4 	"/>
	<polyline class="st16" points="583.7,226.7 577.7,202.7 596.8,199.7 587.2,160 599.6,157.2 	"/>
	<polyline class="st16" points="654.6,262.8 606.9,274.7 616.7,311.9 	"/>
	<path class="st6" d="M643.2,368.2h-43.6c-2.9,0-5.3-2.4-5.3-5.3v-52.7c0-2.9,2.4-5.3,5.3-5.3h43.6c2.9,0,5.3,2.4,5.3,5.3v52.7
		C648.5,365.8,646.1,368.2,643.2,368.2z"/>
	<path class="st17" d="M643.5,355.1h-44.2c-0.7,0-1.2-0.5-1.2-1.2v-41.7c0-1.3,1.1-2.4,2.4-2.4h41.9c1.3,0,2.4,1.1,2.4,2.4v41.7
		C644.7,354.5,644.2,355.1,643.5,355.1z"/>
	<text transform="matrix(1 0 0 1 598.0926 362.1077)" class="st18 st19 st20">Edifício Cauduro</text>
</g>
</svg>
