<?xml version="1.0" encoding="utf-8"?>
<!-- Generator: Adobe Illustrator 25.2.1, SVG Export Plug-In . SVG Version: 6.00 Build 0)  -->
<svg version="1.1" id="Camada_1" xmlns="http://www.w3.org/2000/svg" xmlns:xlink="http://www.w3.org/1999/xlink" x="0px" y="0px"
	 viewBox="0 0 722.5 377.5" style="enable-background:new 0 0 722.5 377.5;" xml:space="preserve">
<style type="text/css">
	.st0{fill:#162257;}
	.st1{fill:#D6CEB6;}
	.st2{fill:#574B27;}
	.st3{fill:#968B69;}
	.st4{fill:#868DAC;}
</style>
<g>
	<g>
		<path class="st0" d="M104.5,268.2H89.1l35.3-133.8h14.2l35.3,133.8h-16.2l-3.8-14.8h-45.5L104.5,268.2z M148.8,233.5h-35.5
			l-1.8,7.4h39.3L148.8,233.5z M131.2,164.7L116.5,221h29.1L131.2,164.7z"/>
	</g>
	<g>
		<path class="st0" d="M266.5,268.2h-19L208,189.6h-9.6v78.6h-16.2V134.4h29.3c29.1,0,43.3,5.4,43.3,26.9c0,15.4-9.6,23.9-29.5,26.7
			L266.5,268.2z M214,174.1c15.8,0,23.9-4.4,23.9-12.8c0-9.2-7.6-12.2-24.1-12.2h-15.4v25.1H214V174.1z"/>
	</g>
	<g>
		<path class="st0" d="M320.9,253.1L320.9,253.1v15.1h-15.8v-31.5c-22.5-7.2-33.7-21.1-33.7-40.9c0-23.3,18.6-41.7,41.7-41.7
			s41.7,18.4,41.7,41.7c0,19.7-11.4,33.5-33.9,40.9L320.9,253.1L320.9,253.1z M338.8,195.8c0-14-11.6-25.7-25.7-25.7
			c-14,0-25.7,11.6-25.7,25.7c0,10.8,5.8,19.1,17.6,24.5V196h15.8v24.3C333,214.8,338.8,206.6,338.8,195.8z"/>
	</g>
	<g>
		<path class="st0" d="M466.2,252.7H533v14.6h-83V133.6h38.6v14.6h-22.4v10.2h47.1V173h-47.1L466.2,252.7L466.2,252.7z"/>
	</g>
	<g>
		<path class="st0" d="M615.1,154.1c-23.1,0-41.7,18.5-41.7,41.7s18.4,41.7,41.7,41.7s41.7-18.6,41.7-41.7
			C656.8,172.5,638.1,154.1,615.1,154.1z M615.1,221.8c-14.6,0-26.1-11.4-26.1-26.1c0-14.6,11.6-26.1,26.1-26.1
			c14.4,0,26.1,11.6,26.1,26.1C641.1,210.2,629.7,221.8,615.1,221.8z"/>
	</g>
	<g>
		<path class="st0" d="M545.2,195.8c0,28.4,22.2,52.8,50.6,52.8V266c-39.2,0-70.3-31.1-70.3-70.3s31.4-70.3,70.3-70.3v18.8
			C567.8,144.3,545.2,167.4,545.2,195.8z"/>
	</g>
	<g>
		<path class="st0" d="M436.1,169.6c-3.7-8.8-9-16.6-15.7-23.1c-9.6-9.3-21.9-15.9-35.6-18.5c-4.4-0.8-8.9-1.3-13.5-1.3v140.5
			c17.3,0,33-6,45.1-16.1c15.4-12.8,25.1-32.2,25.1-54.1C441.6,187.2,439.6,178,436.1,169.6z M387.5,246.9v-98.7
			c20,6.9,34.3,26.1,34.3,48.7C421.9,219.6,407.7,239.8,387.5,246.9z"/>
	</g>
	<g>
		<rect x="488.6" y="119.1" class="st0" width="44.4" height="14.5"/>
	</g>
	<g>
		<path class="st0" d="M639.6,351.7H96.1c-25.8,0-46.7-19.8-46.7-44.1V93.3c0-24.3,21-44.1,46.7-44.1h543.5
			c25.8,0,46.7,19.8,46.7,44.1v42.9h-19V93.3c0-13.8-12.4-25.1-27.7-25.1H96.1c-15.3,0-27.7,11.3-27.7,25.1v214.3
			c0,13.8,12.4,25.1,27.7,25.1h543.5c15.3,0,27.7-11.3,27.7-25.1V250h19v57.7C686.3,332,665.3,351.7,639.6,351.7z"/>
	</g>
</g>
<rect x="-2381.3" y="-279.5" class="st1" width="735.7" height="400.9"/>
<g>
	<path class="st0" d="M-2286-14.2h-15.4l35.3-133.8h14.2l35.3,133.8h-16.2l-3.8-14.8h-45.5L-2286-14.2z M-2241.7-48.9h-35.5
		l-1.8,7.4h39.3L-2241.7-48.9z M-2259.4-117.7l-14.6,56.3h29.1L-2259.4-117.7z"/>
</g>
<g>
	<path class="st0" d="M-2124-14.2h-19l-39.5-78.6h-9.6v78.6h-16.2V-148h29.3c29.1,0,43.3,5.4,43.3,26.9c0,15.4-9.6,23.9-29.5,26.7
		L-2124-14.2z M-2176.5-108.2c15.8,0,23.9-4.4,23.9-12.8c0-9.2-7.6-12.2-24.1-12.2h-15.4v25.1L-2176.5-108.2L-2176.5-108.2z"/>
</g>
<g>
	<path class="st0" d="M-2069.6,5.2h-0.2v14.4h-15.6v-30.9c-22.5-7.2-33.7-21.1-33.7-40.9c0-23.3,18.6-41.7,41.7-41.7
		c23.1,0,41.7,18.4,41.7,41.7c0,19.7-11.4,33.5-33.9,40.9V5.2z M-2051.7-52.1c0-14-11.6-25.7-25.7-25.7c-14,0-25.7,11.6-25.7,25.7
		c0,10.8,5.8,19.1,17.6,24.5v-24.3h15.8v24.3C-2057.6-33.1-2051.7-41.3-2051.7-52.1z"/>
</g>
<g>
	<path class="st0" d="M-1924.3-29.6h49.1V-15h-65.4v-133.8h38.6v14.6h-22.4v10.2h66.8v14.6h-66.8v79.8H-1924.3z"/>
</g>
<g>
	<path class="st0" d="M-1766.8-128.3c-23.1,0-41.7,18.5-41.7,41.7s18.4,41.7,41.7,41.7s41.7-18.6,41.7-41.7
		C-1725.1-109.8-1743.7-128.3-1766.8-128.3z M-1766.8-60.5c-14.6,0-26.1-11.4-26.1-26.1c0-14.6,11.6-26.1,26.1-26.1
		c14.4,0,26.1,11.6,26.1,26.1S-1752.1-60.5-1766.8-60.5z"/>
</g>
<g>
	<path class="st0" d="M-1833.5-86.6c0,28.4,22.2,52.8,50.6,52.8v17.4c-39.2,0-70.3-31.1-70.3-70.3s31.4-70.3,70.3-70.3v18.8
		C-1811-138-1833.5-115-1833.5-86.6z"/>
</g>
<g>
	<path class="st0" d="M-1954.4-112.8c-3.7-8.8-9-16.6-15.7-23.1c-9.6-9.3-21.9-15.9-35.6-18.5c-4.4-0.8-8.9-1.3-13.5-1.3v140.5
		c17.3,0,33-6,45.1-16.1c15.4-12.8,25.1-32.2,25.1-54.1C-1949-95.2-1950.9-104.4-1954.4-112.8z M-2003-35.4v-98.7
		c20,6.9,34.3,26.1,34.3,48.7C-1968.7-62.7-1982.8-42.6-2003-35.4z"/>
</g>
<g>
	<path class="st0" d="M-1750.9,53.9h-543.5c-25.8,0-46.7-18.1-46.7-40.4V-178c0-22.3,21-40.4,46.7-40.4h543.5
		c25.8,0,46.7,18.1,46.7,40.4v38.3h-19V-178c0-11.8-12.4-21.4-27.7-21.4h-543.5c-15.3,0-27.7,9.6-27.7,21.4V13.5
		c0,11.8,12.4,21.4,27.7,21.4h543.5c15.3,0,27.7-9.6,27.7-21.4V-38h19v51.5C-1704.2,35.8-1725.2,53.9-1750.9,53.9z"/>
</g>
<rect x="-2381.3" y="121.5" class="st2" width="735.7" height="400.9"/>
<g>
	<g>
		<path class="st3" d="M-2286,386.7h-15.4l35.3-133.8h14.2l35.3,133.8h-16.2l-3.8-14.8h-45.5L-2286,386.7z M-2241.7,352.1h-35.5
			l-1.8,7.4h39.3L-2241.7,352.1z M-2259.4,283.3l-14.6,56.3h29.1L-2259.4,283.3z"/>
	</g>
	<g>
		<path class="st3" d="M-2124,386.7h-19l-39.5-78.6h-9.6v78.6h-16.2V253h29.3c29.1,0,43.3,5.4,43.3,26.9c0,15.4-9.6,23.9-29.5,26.7
			L-2124,386.7z M-2176.5,292.7c15.8,0,23.9-4.4,23.9-12.8c0-9.2-7.6-12.2-24.1-12.2h-15.4v25.1h15.6V292.7z"/>
	</g>
	<g>
		<path class="st3" d="M-2069.6,406.1h-0.2v14.4h-15.6v-30.9c-22.5-7.2-33.7-21.1-33.7-40.9c0-23.3,18.6-41.7,41.7-41.7
			c23.1,0,41.7,18.4,41.7,41.7c0,19.7-11.4,33.5-33.9,40.9V406.1z M-2051.7,348.8c0-14-11.6-25.7-25.7-25.7
			c-14,0-25.7,11.6-25.7,25.7c0,10.8,5.8,19.1,17.6,24.5V349h15.8v24.3C-2057.6,367.9-2051.7,359.6-2051.7,348.8z"/>
	</g>
	<g>
		<path class="st3" d="M-1924.3,371.3h49.1V386h-65.4V252.2h38.6v14.6h-22.4V277h66.8v14.6h-66.8v79.7H-1924.3z"/>
	</g>
	<g>
		<path class="st3" d="M-1766.8,272.6c-23.1,0-41.7,18.5-41.7,41.7c0,23.3,18.4,41.7,41.7,41.7s41.7-18.6,41.7-41.7
			C-1725.1,291.1-1743.7,272.6-1766.8,272.6z M-1766.8,340.4c-14.6,0-26.1-11.4-26.1-26.1c0-14.6,11.6-26.1,26.1-26.1
			c14.4,0,26.1,11.6,26.1,26.1C-1740.7,328.8-1752.1,340.4-1766.8,340.4z"/>
	</g>
	<g>
		<path class="st3" d="M-1833.5,314.4c0,28.4,22.2,52.8,50.6,52.8v17.4c-39.2,0-70.3-31.1-70.3-70.3s31.4-70.3,70.3-70.3v18.8
			C-1811,262.9-1833.5,286-1833.5,314.4z"/>
	</g>
	<g>
		<path class="st3" d="M-1954.4,288.2c-3.7-8.8-9-16.6-15.7-23.1c-9.6-9.3-21.9-15.9-35.6-18.5c-4.4-0.8-8.9-1.3-13.5-1.3v140.5
			c17.3,0,33-6,45.1-16.1c15.4-12.8,25.1-32.2,25.1-54.1C-1949,305.8-1950.9,296.5-1954.4,288.2z M-2003,365.5v-98.7
			c20,6.9,34.3,26.1,34.3,48.7C-1968.7,338.2-1982.8,358.3-2003,365.5z"/>
	</g>
	<g>
		<rect x="-1896.9" y="236.1" class="st3" width="39.4" height="14.5"/>
	</g>
	<g>
		<path class="st3" d="M-1750.9,454.8h-543.5c-25.8,0-46.7-18.1-46.7-40.4V223c0-22.3,21-40.4,46.7-40.4h543.5
			c25.8,0,46.7,18.1,46.7,40.4v38.3h-19V223c0-11.8-12.4-21.4-27.7-21.4h-543.5c-15.3,0-27.7,9.6-27.7,21.4v191.4
			c0,11.8,12.4,21.4,27.7,21.4h543.5c15.3,0,27.7-9.6,27.7-21.4v-51.5h19v51.5C-1704.2,436.7-1725.2,454.8-1750.9,454.8z"/>
	</g>
</g>
<rect x="-2381.3" y="522.4" class="st0" width="735.7" height="400.9"/>
<g>
	<g>
		<path class="st4" d="M-2286,787.7h-15.4l35.3-133.8h14.2l35.3,133.8h-16.2l-3.8-14.8h-45.5L-2286,787.7z M-2241.7,753h-35.5
			l-1.8,7.4h39.3L-2241.7,753z M-2259.4,684.2l-14.6,56.3h29.1L-2259.4,684.2z"/>
	</g>
	<g>
		<path class="st4" d="M-2124,787.7h-19l-39.5-78.6h-9.6v78.6h-16.2V653.9h29.3c29.1,0,43.3,5.4,43.3,26.9
			c0,15.4-9.6,23.9-29.5,26.7L-2124,787.7z M-2176.5,693.6c15.8,0,23.9-4.4,23.9-12.8c0-9.2-7.6-12.2-24.1-12.2h-15.4v25.1
			L-2176.5,693.6L-2176.5,693.6z"/>
	</g>
	<g>
		<path class="st4" d="M-2069.6,807.1h-0.2v14.4h-15.6v-30.9c-22.5-7.2-33.7-21.1-33.7-40.9c0-23.3,18.6-41.7,41.7-41.7
			c23.1,0,41.7,18.4,41.7,41.7c0,19.7-11.4,33.5-33.9,40.9V807.1z M-2051.7,749.7c0-14-11.6-25.7-25.7-25.7
			c-14,0-25.7,11.6-25.7,25.7c0,10.8,5.8,19.1,17.6,24.5v-24.3h15.8v24.3C-2057.6,768.8-2051.7,760.6-2051.7,749.7z"/>
	</g>
	<g>
		<path class="st4" d="M-1924.3,772.3h49.1v14.6h-65.4V653.1h38.6v14.6h-22.4V678h66.8v14.6h-66.8v79.7H-1924.3z"/>
	</g>
	<g>
		<path class="st4" d="M-1766.8,673.6c-23.1,0-41.7,18.5-41.7,41.7c0,23.3,18.4,41.7,41.7,41.7s41.7-18.6,41.7-41.7
			C-1725.1,692-1743.7,673.6-1766.8,673.6z M-1766.8,741.4c-14.6,0-26.1-11.4-26.1-26.1c0-14.6,11.6-26.1,26.1-26.1
			c14.4,0,26.1,11.6,26.1,26.1C-1740.7,729.7-1752.1,741.4-1766.8,741.4z"/>
	</g>
	<g>
		<path class="st4" d="M-1833.5,715.3c0,28.4,22.2,52.8,50.6,52.8v17.4c-39.2,0-70.3-31.1-70.3-70.3s31.4-70.3,70.3-70.3v18.8
			C-1811,663.9-1833.5,686.9-1833.5,715.3z"/>
	</g>
	<g>
		<path class="st4" d="M-1954.4,689.1c-3.7-8.8-9-16.6-15.7-23.1c-9.6-9.3-21.9-15.9-35.6-18.5c-4.4-0.8-8.9-1.3-13.5-1.3v140.5
			c17.3,0,33-6,45.1-16.1c15.4-12.8,25.1-32.2,25.1-54.1C-1949,706.7-1950.9,697.5-1954.4,689.1z M-2003,766.5v-98.7
			c20,6.9,34.3,26.1,34.3,48.7C-1968.7,739.1-1982.8,759.3-2003,766.5z"/>
	</g>
	<g>
		<rect x="-1896.9" y="637" class="st4" width="39.4" height="14.5"/>
	</g>
	<g>
		<path class="st4" d="M-1750.9,855.8h-543.5c-25.8,0-46.7-18.1-46.7-40.4V623.9c0-22.3,21-40.4,46.7-40.4h543.5
			c25.8,0,46.7,18.1,46.7,40.4v38.3h-19v-38.3c0-11.8-12.4-21.4-27.7-21.4h-543.5c-15.3,0-27.7,9.6-27.7,21.4v191.4
			c0,11.8,12.4,21.4,27.7,21.4h543.5c15.3,0,27.7-9.6,27.7-21.4v-51.5h19v51.5C-1704.2,837.6-1725.2,855.8-1750.9,855.8z"/>
	</g>
</g>
<text transform="matrix(1 0 0 1 -2381.3091 -301.7227)" style="font-family:'HvDTrial_BrandonGrotesque-Regular'; font-size:73.4806px;">PRIMEIROS TESTES</text>
</svg>
