<svg width="85" height="40" viewBox="0 0 85 40" fill="none" xmlns="http://www.w3.org/2000/svg">
<path d="M7.28596 28.9587H5.2496L9.91737 11.2661H11.7951L16.4628 28.9587H14.3207L13.8182 27.0017H7.80166L7.28596 28.9587ZM13.1438 24.3703H8.4496L8.21158 25.3488H13.4083L13.1438 24.3703ZM10.8165 15.2727L8.87274 22.7174H12.7207L10.8165 15.2727Z" fill="#162257"/>
<path d="M28.7075 28.9587H26.1951L20.9719 18.5653H19.7025V28.9587H17.5603V11.2661H21.4347C25.2827 11.2661 27.1603 11.9802 27.1603 14.8231C27.1603 16.8595 25.8909 17.9835 23.2595 18.3537L28.7075 28.9587ZM21.7653 16.5157C23.8546 16.5157 24.9256 15.9339 24.9256 14.8231C24.9256 13.6066 23.9207 13.2099 21.7389 13.2099H19.7025V16.5289H21.7653V16.5157Z" fill="#162257"/>
<path d="M35.9008 26.962V28.9587H33.8116V24.7934C30.8364 23.8413 29.3554 22.0033 29.3554 19.3851C29.3554 16.3041 31.8149 13.8711 34.8694 13.8711C37.924 13.8711 40.3835 16.3041 40.3835 19.3851C40.3835 21.9901 38.876 23.8149 35.9008 24.7934V26.962ZM38.2678 19.3851C38.2678 17.5339 36.7339 15.9868 34.8694 15.9868C33.0182 15.9868 31.4711 17.5207 31.4711 19.3851C31.4711 20.8132 32.238 21.9107 33.7984 22.6248V19.4116H35.8876V22.6248C37.5008 21.8975 38.2678 20.8132 38.2678 19.3851Z" fill="#162257"/>
<path d="M55.1141 26.9091H63.9471V28.8397H52.9719V11.1603H58.0761V13.0909H55.1141V14.4397H61.3422V16.3702H55.1141V26.9091Z" fill="#162257"/>
<path d="M74.8033 13.8711C71.7488 13.8711 69.2893 16.3173 69.2893 19.3851C69.2893 22.4529 71.7223 24.8992 74.8033 24.8992C77.8843 24.8992 80.3174 22.4397 80.3174 19.3851C80.3174 16.3041 77.8447 13.8711 74.8033 13.8711ZM74.8033 22.8231C72.8728 22.8231 71.3521 21.3157 71.3521 19.3719C71.3521 17.4413 72.886 15.9207 74.8033 15.9207C76.7075 15.9207 78.2546 17.4545 78.2546 19.3719C78.2414 21.2893 76.7339 22.8231 74.8033 22.8231Z" fill="#162257"/>
<path d="M65.5604 19.3851C65.5604 23.1405 68.4959 26.3669 72.2513 26.3669V28.6678C67.0678 28.6678 62.9554 24.5554 62.9554 19.3719C62.9554 14.1884 67.1075 10.076 72.2513 10.076V12.562C68.5488 12.5752 65.5604 15.6297 65.5604 19.3851Z" fill="#162257"/>
<path d="M51.1339 15.9207C50.6447 14.757 49.9438 13.7256 49.0579 12.8661C47.7885 11.6364 46.162 10.7636 44.3504 10.4198C43.7686 10.314 43.1736 10.2479 42.5653 10.2479V28.8264C44.8529 28.8264 46.9289 28.0331 48.5289 26.6975C50.5653 25.005 51.848 22.4397 51.848 19.5438C51.8612 18.2479 51.5967 17.0314 51.1339 15.9207ZM44.7075 26.1421V13.0909C47.3521 14.0033 49.243 16.5421 49.243 19.5306C49.2562 22.5322 47.3785 25.2033 44.7075 26.1421Z" fill="#162257"/>
<path d="M63.9471 9.24298H58.0761V11.1603H63.9471V9.24298Z" fill="#162257"/>
<path d="M78.043 40H6.17521C2.76364 40 0 37.3818 0 34.1686V5.8314C0 2.61818 2.77686 -7.62939e-06 6.17521 -7.62939e-06H78.043C81.4546 -7.62939e-06 84.2182 2.61818 84.2182 5.8314V11.5041H81.7058V5.8314C81.7058 4.00661 80.0661 2.51239 78.043 2.51239H6.17521C4.15207 2.51239 2.5124 4.00661 2.5124 5.8314V34.1686C2.5124 35.9934 4.15207 37.4876 6.17521 37.4876H78.043C80.0661 37.4876 81.7058 35.9934 81.7058 34.1686V26.5521H84.2182V34.1818C84.2182 37.395 81.4413 40 78.043 40Z" fill="#162257"/>
</svg>
